{"title":"Java Heat 2013 BRRip 720p x264 AAC - PRiSTiNE [P2PDL]","uid":8239669,"size":618641438,"categoryP":"video","categoryS":"hd___movies","magnet":"?xt=urn:btih:9ab2a58feda763c97e3733d5569a1a13d8c2976c&amp;dn=Java+Heat+2013+BRRip+720p+x264+AAC+-+PRiSTiNE+%5BP2PDL%5D&amp;tr=udp%3A%2F%2Ftracker.openbittorrent.com%3A80&amp;tr=udp%3A%2F%2Fopen.demonii.com%3A1337&amp;tr=udp%3A%2F%2Ftracker.coppersurfer.tk%3A6969&amp;tr=udp%3A%2F%2Fexodus.desync.com%3A6969","seeders":1,"leechers":0,"uploader":"ValidusVyto","files":-1,"time":1362937409,"description":"_________________________  Visit us at _________________________\n  &lt;a href=&quot;\nhttp://p2pdl.com&quot; rel=&quot;nofollow&quot; target=&quot;_NEW&quot;&gt;\nhttp://p2pdl.com&lt;/a&gt;  ____________________________ &lt;a href=&quot; http://p2pdl.com&quot; rel=&quot;nofollow&quot; target=&quot;_NEW&quot;&gt; http://p2pdl.com&lt;/a&gt;\n\n\nJava Heat 2013 BRRip 720p x264 AAC - PRiSTiNE\n\n\nGenre: Action | Crime | Drama\nPlot: An American in Indonesia teams up with a Muslim cop to track down a terrorist.\nDirector: Conor Allyn\nStars: Kellan Lutz, Mickey Rourke, Ario Bayu.\nRated: N/a.\n\n\nIMDb: &lt;a href=&quot;\nhttp://www.imdb.com/title/tt2083231/&quot; rel=&quot;nofollow&quot; target=&quot;_NEW&quot;&gt;\nhttp://www.imdb.com/title/tt2083231/&lt;/a&gt;\n\nTrailer:\n\n\nFormat                         : MPEG-4\nFile size                      : 582 MiB\nDuration                       : 1h 43mn\nOverall bit rate               : 784 Kbps\nVideo Format                   : AVC\nVideo Bit rate                 : 697 Kbps\nWidth                          : 1 280 pixels\nHeight                         : 544 pixels\nDisplay aspect ratio           : 2.35:1\nFrame rate mode                : Constant\nFrame rate                     : 23.976 fps\nStream size                    : 517 MiB (89%)\nWriting library                : x264 core 129 r2245\nAudio Format                   : AAC\nDuration                       : 1h 43mn\nAudio Bit rate                 : 83.9 Kbps\nChannel(s)                     : 2 channels\nChannel positions              : Front: L R\nSampling rate                  : 48.0 KHz\nStream size                    : 62.3 MiB (11%)\nLanguage                       : English\nTagged date                    : UTC 2013-03-10 07:57:17\nSubtitle                       : N/a\nSource                         : 720p.BluRay.DTS.x264-PHD(Thanks)\n\nScreenshots:\n &lt;a href=&quot;\nhttp://cdn.piczend.com/images/kNWc8QmY/1362931083_tinybayjavaheat2013brri.jpg&quot; rel=&quot;nofollow&quot; target=&quot;_NEW&quot;&gt;\nhttp://cdn.piczend.com/images/kNWc8QmY/1362931083_tinybayjavaheat2013brri.jpg&lt;/a&gt;\n\n\n----------------------------------------------------------------------------------------------------\n\n\nEncoded using revolutionary 10bit encoding, which enables us to provide you more crispier and\nsharper images at small sizes, just make sure you follow our instructions without a fault.\nRecommend to you to use latest version of VLC player. Install K-Lite Codec Pack or shark007 codecs\nin case of any kind of problem in playback (For non-VLC Media Player users). Alternatively, install\nCore AVC codecs, the fastest decoder that there is coupled with Community Center Codec Pack and play\non Windows Media Player Classic.\n\n\nEncoder Notes: Looking For Early Access To Anything You Can Provide DVDScr, R5, DVDR, BluRay, Direct\nAudio, Music Releases and Seedboxes. We require dedicated servers, so as to do more and fast releases of movies.\nIf You Got anything to offer contact us at &quot;&lt;a class=&quot;__cf_email__&quot; href=&quot;/cdn-cgi/l/email-protection&quot; data-cfemail=&quot;89f9fbeec9e1fcfae1a7eae6e4&quot;&gt;[email&amp;#160;protected]&lt;/a&gt;&lt;script cf-hash='f9e31' type=&quot;text/javascript&quot;&gt;\n/* &lt;![CDATA[ */!function(){try{var t=&quot;currentScript&quot;in document?document.currentScript:function(){for(var t=document.getElementsByTagName(&quot;script&quot;),e=t.length;e--;)if(t[e].getAttribute(&quot;cf-hash&quot;))return t[e]}();if(t&amp;&amp;t.previousSibling){var e,r,n,i,c=t.previousSibling,a=c.getAttribute(&quot;data-cfemail&quot;);if(a){for(e=&quot;&quot;,r=parseInt(a.substr(0,2),16),n=2;a.length-n;n+=2)i=parseInt(a.substr(n,2),16)^r,e+=String.fromCharCode(i);e=document.createTextNode(e),c.parentNode.replaceChild(e,c)}}}catch(u){}}();/* ]]&gt; */&lt;/script&gt;&quot;.","torrent":{"xt":"urn:btih:9ab2a58feda763c97e3733d5569a1a13d8c2976c","amp;dn":"Java+Heat+2013+BRRip+720p+x264+AAC+-+PRiSTiNE+%5BP2PDL%5D","amp;tr":["udp%3A%2F%2Ftracker.openbittorrent.com%3A80","udp%3A%2F%2Fopen.demonii.com%3A1337","udp%3A%2F%2Ftracker.coppersurfer.tk%3A6969","udp%3A%2F%2Fexodus.desync.com%3A6969"],"infoHash":"9ab2a58feda763c97e3733d5569a1a13d8c2976c","infoHashBuffer":{"type":"Buffer","data":[154,178,165,143,237,167,99,201,126,55,51,213,86,154,26,19,216,194,151,108]},"announce":[],"urlList":[]}}